# xmcd
#
# Track frame offsets:
#	150
#	17491
#	32957
#	43427
#	62110
#	77453
#	91946
#	102152
#	116889
#	131764
#	151268
#	165104
#	185611
#
# Disc length: 2563 seconds
#
# Revision: 0
# Processed by: cddbd v1.5.2PL0 Copyright (c) Steve Scherf et al.
# Submitted via: EZCDAudioConverter 2.1.2.1
#
DISCID=a20a010d
DTITLE=Emmy Rossum - Sentimental Journey
DYEAR=2013
DGENRE=
TTITLE0=Sentimental Journey
TTITLE1=The Object of My Affection
TTITLE2=I’m Looking over a Four Leaf Clover
TTITLE3=These Foolish Things (Remind Me of You)
TTITLE4=I’ll Be With You in Apple Blossom Time
TTITLE5=Summer Wind
TTITLE6=Many Tears Ago
TTITLE7=All I do is Dream of You
TTITLE8=Nobody Knows You When You’re Down and Out
TTITLE9=Autumn Leaves (Les Feuilles Mortes)
TTITLE10=Things
TTITLE11=Pretty Paper
TTITLE12=Keep Young and Beautiful
EXTD=
EXTT0=
EXTT1=
EXTT2=
EXTT3=
EXTT4=
EXTT5=
EXTT6=
EXTT7=
EXTT8=
EXTT9=
EXTT10=
EXTT11=
EXTT12=
PLAYORDER=
